<svg width="1200" height="400" viewBox="0 0 1200 400" fill="none" xmlns="http://www.w3.org/2000/svg">
  <!-- Grid of Author Faces -->
  <rect width="1200" height="400" fill="#f9fbfb"/>
  
  <!-- Row 1 -->
  <circle cx="100" cy="80" r="60" fill="#1f4f58" opacity="0.3"/>
  <circle cx="250" cy="80" r="60" fill="#15383f" opacity="0.3"/>
  <circle cx="400" cy="80" r="60" fill="#1f4f58" opacity="0.3"/>
  <circle cx="550" cy="80" r="60" fill="#15383f" opacity="0.3"/>
  <circle cx="700" cy="80" r="60" fill="#1f4f58" opacity="0.3"/>
  <circle cx="850" cy="80" r="60" fill="#15383f" opacity="0.3"/>
  <circle cx="1000" cy="80" r="60" fill="#1f4f58" opacity="0.3"/>
  <circle cx="1150" cy="80" r="60" fill="#15383f" opacity="0.3"/>
  
  <!-- Row 2 -->
  <circle cx="100" cy="200" r="60" fill="#15383f" opacity="0.3"/>
  <circle cx="250" cy="200" r="60" fill="#1f4f58" opacity="0.3"/>
  <circle cx="400" cy="200" r="60" fill="#15383f" opacity="0.3"/>
  <circle cx="550" cy="200" r="60" fill="#1f4f58" opacity="0.3"/>
  <circle cx="700" cy="200" r="60" fill="#15383f" opacity="0.3"/>
  <circle cx="850" cy="200" r="60" fill="#1f4f58" opacity="0.3"/>
  <circle cx="1000" cy="200" r="60" fill="#15383f" opacity="0.3"/>
  <circle cx="1150" cy="200" r="60" fill="#1f4f58" opacity="0.3"/>
  
  <!-- Row 3 -->
  <circle cx="100" cy="320" r="60" fill="#1f4f58" opacity="0.3"/>
  <circle cx="250" cy="320" r="60" fill="#15383f" opacity="0.3"/>
  <circle cx="400" cy="320" r="60" fill="#1f4f58" opacity="0.3"/>
  <circle cx="550" cy="320" r="60" fill="#15383f" opacity="0.3"/>
  <circle cx="700" cy="320" r="60" fill="#1f4f58" opacity="0.3"/>
  <circle cx="850" cy="320" r="60" fill="#15383f" opacity="0.3"/>
  <circle cx="1000" cy="320" r="60" fill="#1f4f58" opacity="0.3"/>
  <circle cx="1150" cy="320" r="60" fill="#15383f" opacity="0.3"/>
  
  <!-- Overlay text -->
  <text x="600" y="210" font-family="Arial, sans-serif" font-size="32" fill="#1f4f58" text-anchor="middle" font-weight="700" opacity="0.2">Kirjailijat</text>
</svg>
